<?xml version="1.0" encoding="UTF-8" standalone="no"?>
<!DOCTYPE svg PUBLIC "-//W3C//DTD SVG 1.1//EN" "http://www.w3.org/Graphics/SVG/1.1/DTD/svg11.dtd">
<!-- Created with Vectornator (http://vectornator.io/) -->
<svg height="100%" stroke-miterlimit="10" style="fill-rule:nonzero;clip-rule:evenodd;stroke-linecap:round;stroke-linejoin:round;" version="1.1" viewBox="0 0 3370.82 2384.24" width="100%" xml:space="preserve" xmlns="http://www.w3.org/2000/svg" xmlns:vectornator="http://vectornator.io" xmlns:xlink="http://www.w3.org/1999/xlink">
<defs/>
<g id="Слой-1" vectornator:layerName="Слой 1">
<path d="M814.206 866.254C780.687 1071.35 779.606 1099.67 779.606 1099.67C872.755 1192.12 932.245 878.043 932.245 878.043L906.486 1076.6L932.718 1084.34C945.833 1135.94 916.687 1150.13 916.687 1150.13C916.687 1150.13 896.285 1178.51 891.913 1147.55C887.541 1116.59 969.15 1075.31 969.15 1075.31L992.467 978.571C1011.41 1090.79 1031.86 1106.78 1031.86 1106.78C1082.43 1128.17 1120.71 974.701 1120.71 974.701L1116.95 1106.45C1152.95 1072.7 1211.06 972.121 1211.06 972.121C1186.29 1086.92 1170.21 1113.14 1170.21 1113.14C1232.88 1016.4 1310.16 923.104 1291.22 1009.53C1272.27 1095.95 1252.2 1114.3 1252.2 1114.3L1294.13 1014.69L1345.18 976.473C1362.67 1028.07 1323.7 1113.25 1323.7 1113.25C1373.25 1104.22 1396.66 1042.24 1396.66 1042.24C1411.23 949.361 1506.9 968.251 1506.9 968.251C1549.16 1012.11 1460.4 1101.62 1460.4 1101.62C1431.26 1149.35 1398.21 1045.97 1398.21 1045.97L1499.89 1093.86C1540.7 1119.65 1544.6 1082.42 1544.6 1082.42L1617.66 974.701L1581.27 1110.84C1648.96 971.713 1663.37 989.555 1663.37 989.555L1634.57 1101.81L1685.41 1006.53C1685.41 984.315 1725.72 998.958 1725.72 998.958L1685.41 1111.63C1711.94 1139.52 1777.51 1003.55 1777.51 1003.55L1744.96 1119.42L1749.72 1101.6C1782.88 1142.7 1792.71 1111.01 1792.71 1111.01C1823.35 1087.74 1803.81 1064.98 1803.81 1064.98L1846.61 1017.05C1846.61 1072.83 1838.15 1126.26 1838.15 1126.26C1874.63 1115.99 1926.56 982.68 1926.56 982.68" fill="none" opacity="1" stroke="#007aff" stroke-linecap="butt" stroke-linejoin="round" stroke-width="10" vectornator:layerName="Кривая 1"/>
</g>
</svg>
